G04 ===== Begin FILE IDENTIFICATION =====*
G04 File Format:  Gerber RS274X*
G04 ===== End FILE IDENTIFICATION =====*
%FSLAX24Y24*%
%MOMM*%
%SFA1.0000B1.0000*%
%OFA0.0B0.0*%
%ADD14C,1.000000*%
%ADD15R,5.000000X2.200000*%
%ADD16R,2.200000X2.200000*%
%ADD17C,1.100000*%
%ADD18R,2.200000X1.100000*%
%ADD19R,2.200000X2.000000*%
%ADD20R,0.600000X0.500000*%
%ADD21R,0.500000X0.600000*%
%ADD22R,1.000000X0.600000*%
%ADD23R,0.600000X0.500300*%
%ADD24R,0.700000X1.300000*%
%ADD25R,2.000000X2.200000*%
%ADD26R,1.100000X2.200000*%
%ADD27R,2.500000X2.200000*%
%ADD28R,2.200000X1.535000*%
%ADD29R,5.600000X2.200000*%
%ADD30R,4.436600X2.200000*%
%ADD31R,2.200000X3.202400*%
%ADD32R,6.179600X0.600000*%
%ADD33R,0.600000X7.629600*%
%LNcond*%
%IPPOS*%
%LPD*%
G75*
G36*
G01X-1147174Y360227D02*
G01X-596144Y145737D01*
G01X-23114D01*
G01Y123737D01*
G01X-596144D01*
G01X-1147174Y-90753D01*
G01Y360227D01*
G37*
D14*
X-22878Y-179401D03*
X627406Y-179656D03*
X627170Y469745D03*
X-23114Y470000D03*
D15*
X1886Y134737D03*
D16*
X37886D03*
D17*
Y43387D03*
D18*
Y37887D03*
G36*
G01X48886Y63387D02*
G01X26886D01*
G01X34886Y78387D01*
G01X40886D01*
G01X48886Y63387D01*
G37*
D19*
X37886Y53387D03*
G36*
G01X48886Y108387D02*
G01X26886D01*
G01X34886Y93387D01*
G01X40886D01*
G01X48886Y108387D01*
G37*
D20*
X37886Y90887D03*
Y80887D03*
D21*
X202386Y134737D03*
X192386D03*
G36*
G01X174886Y145737D02*
G01Y123737D01*
G01X189886Y131737D01*
G01Y137737D01*
G01X174886Y145737D01*
G37*
D21*
X132386Y134737D03*
X122386D03*
G36*
G01X104886Y145737D02*
G01Y123737D01*
G01X119886Y131737D01*
G01Y137737D01*
G01X104886Y145737D01*
G37*
G36*
G01X149886Y145737D02*
G01Y123737D01*
G01X134886Y131737D01*
G01Y137737D01*
G01X149886Y145737D01*
G37*
D22*
X284382Y128387D03*
G36*
G01X289382Y125387D02*
G01Y131387D01*
G01X295382Y125387D01*
G01X289382D01*
G37*
D22*
X284382Y141087D03*
G36*
G01X289382Y144087D02*
G01Y138087D01*
G01X295382Y144087D01*
G01X289382D01*
G37*
D17*
X292382Y14091D03*
D18*
Y8591D03*
D19*
Y24091D03*
G36*
G01X281382Y34091D02*
G01X303382D01*
G01X295382Y49091D01*
G01X289382D01*
G01X281382Y34091D01*
G37*
D23*
X292382Y146590D03*
D16*
Y175090D03*
G36*
G01X281382Y164090D02*
G01X303382D01*
G01X295382Y149090D01*
G01X289382D01*
G01X281382Y164090D01*
G37*
D20*
X292382Y235614D03*
Y245614D03*
G36*
G01X281382Y218114D02*
G01X303382D01*
G01X295382Y233114D01*
G01X289382D01*
G01X281382Y218114D01*
G37*
G36*
G01X281382Y263114D02*
G01X303382D01*
G01X295382Y248114D01*
G01X289382D01*
G01X281382Y263114D01*
G37*
D19*
X292382Y273114D03*
D17*
Y283114D03*
D18*
Y288614D03*
D24*
X375598Y175090D03*
X388598D03*
G36*
G01X347748Y164090D02*
G01Y186090D01*
G01X372098Y181590D01*
G01Y168590D01*
G01X347748Y164090D01*
G37*
G36*
G01X416448Y164090D02*
G01Y186090D01*
G01X392098Y181590D01*
G01Y168590D01*
G01X416448Y164090D01*
G37*
D25*
X426448Y175090D03*
D17*
X436448D03*
D26*
X441948D03*
D27*
X162386Y134737D03*
D28*
X37886Y116062D03*
D29*
X76886Y134737D03*
D30*
X325565Y175090D03*
D31*
X292382Y202102D03*
D32*
X235784Y134737D03*
D33*
X292382Y87239D03*
D14*
X-1200000Y470000D03*
Y-179401D03*
M02*

